<?xml version="1.0" encoding="UTF-8" standalone="no"?><!DOCTYPE svg PUBLIC "-//W3C//DTD SVG 1.1//EN" "http://www.w3.org/Graphics/SVG/1.1/DTD/svg11.dtd"><svg width="181px" height="381px" version="1.1" xmlns="http://www.w3.org/2000/svg" xmlns:xlink="http://www.w3.org/1999/xlink" xml:space="preserve" xmlns:serif="http://www.serif.com/" style="fill-rule:evenodd;clip-rule:evenodd;stroke-linecap:round;stroke-linejoin:round;stroke-miterlimit:1.5;"><g transform="matrix(1.08907,0,0,0.986425,-17.5847,-7.33729)"><g id="Background"><rect x="-0.615" y="0.047" width="194.177" height="397.138" style="fill:#fff;stroke:#fff;stroke-width:0.96px;"/></g></g><g id="PanelGraphics" transform="matrix(1,0,0,1,0.165292,0.348425)"><g transform="matrix(1,0,0,1,-4.34053,-1.69128)"><path d="M32.422,31.128L30.298,19.641L26.391,31.372L25.781,31.372L21.765,19.641L19.69,31.128L17.37,31.128L20.715,13.245L21.826,13.245L26.086,26.294L30.017,13.245L31.115,13.245L34.741,31.128L32.422,31.128Z" style="fill-rule:nonzero;stroke:#fff;stroke-width:1px;stroke-linecap:butt;stroke-miterlimit:1.41421;"/><path d="M35.656,24.561C35.656,22.542 36.2,20.913 37.286,19.672C38.372,18.431 39.803,17.81 41.577,17.81C43.449,17.81 44.901,18.406 45.935,19.598C46.968,20.791 47.485,22.445 47.485,24.561C47.485,26.668 46.956,28.331 45.898,29.547C44.84,30.764 43.4,31.372 41.577,31.372C39.713,31.372 38.261,30.758 37.219,29.529C36.177,28.3 35.656,26.644 35.656,24.561ZM38.098,24.561C38.098,27.84 39.257,29.48 41.577,29.48C42.659,29.48 43.508,29.041 44.122,28.162C44.736,27.283 45.044,26.082 45.044,24.561C45.044,21.322 43.888,19.702 41.577,19.702C40.519,19.702 39.675,20.134 39.044,20.996C38.413,21.859 38.098,23.047 38.098,24.561Z" style="fill-rule:nonzero;stroke:#fff;stroke-width:1px;stroke-linecap:butt;stroke-miterlimit:1.41421;"/><path d="M57.031,20.288C56.526,19.938 56.018,19.763 55.505,19.763C54.683,19.763 53.965,20.142 53.351,20.898C52.736,21.655 52.429,22.567 52.429,23.633L52.429,31.128L50.11,31.128L50.11,18.054L52.429,18.054L52.429,20.142C53.275,18.587 54.533,17.81 56.201,17.81C56.616,17.81 57.214,17.883 57.995,18.03L57.031,20.288Z" style="fill-rule:nonzero;stroke:#fff;stroke-width:1px;stroke-linecap:butt;stroke-miterlimit:1.41421;"/><path d="M61.963,30.408L61.963,36.255L59.643,36.255L59.643,18.054L61.963,18.054L61.963,19.128C62.841,18.25 63.903,17.81 65.149,17.81C67.004,17.81 68.449,18.388 69.482,19.544C70.516,20.699 71.032,22.392 71.032,24.622C71.032,26.607 70.512,28.229 69.47,29.486C68.428,30.743 66.923,31.372 64.953,31.372C64.4,31.372 63.808,31.274 63.177,31.079C62.546,30.884 62.142,30.66 61.963,30.408ZM61.963,20.874L61.963,28.491C62.109,28.711 62.418,28.921 62.89,29.12C63.362,29.319 63.822,29.419 64.27,29.419C67.151,29.419 68.591,27.791 68.591,24.536C68.591,22.884 68.249,21.676 67.566,20.911C66.882,20.146 65.787,19.763 64.282,19.763C63.956,19.763 63.558,19.877 63.086,20.105C62.614,20.333 62.239,20.589 61.963,20.874Z" style="fill-rule:nonzero;stroke:#fff;stroke-width:1px;stroke-linecap:butt;stroke-miterlimit:1.41421;"/><path d="M81.628,31.128L81.628,22.913C81.628,21.936 81.388,21.167 80.908,20.606C80.428,20.044 79.752,19.763 78.882,19.763C78.32,19.763 77.756,19.928 77.191,20.258C76.625,20.587 76.192,20.972 75.891,21.411L75.891,31.128L73.571,31.128L73.571,12.695L75.891,12.695L75.891,19.495C76.2,19.015 76.698,18.614 77.386,18.292C78.074,17.971 78.784,17.81 79.516,17.81C80.9,17.81 81.984,18.266 82.769,19.177C83.555,20.089 83.947,21.334 83.947,22.913L83.947,31.128L81.628,31.128Z" style="fill-rule:nonzero;stroke:#fff;stroke-width:1px;stroke-linecap:butt;stroke-miterlimit:1.41421;"/><path d="M89.624,13.11C90.022,13.11 90.362,13.251 90.643,13.532C90.924,13.812 91.064,14.148 91.064,14.539C91.064,14.937 90.924,15.277 90.643,15.558C90.362,15.839 90.022,15.979 89.624,15.979C89.233,15.979 88.897,15.839 88.617,15.558C88.336,15.277 88.195,14.937 88.195,14.539C88.195,14.14 88.334,13.802 88.611,13.525C88.887,13.249 89.225,13.11 89.624,13.11ZM88.354,31.128L88.354,20.007L86.56,20.007L86.56,18.054L90.673,18.054L90.673,31.128L88.354,31.128Z" style="fill-rule:nonzero;stroke:#fff;stroke-width:1px;stroke-linecap:butt;stroke-miterlimit:1.41421;"/><path d="M102.404,31.128L102.404,23.523C102.404,22.131 102.195,21.157 101.776,20.599C101.357,20.042 100.655,19.763 99.67,19.763C99.141,19.763 98.588,19.922 98.01,20.239C97.432,20.557 96.989,20.947 96.679,21.411L96.679,31.128L94.36,31.128L94.36,18.054L95.947,18.054L96.679,19.739C97.444,18.453 98.694,17.81 100.427,17.81C103.292,17.81 104.724,19.552 104.724,23.035L104.724,31.128L102.404,31.128Z" style="fill-rule:nonzero;stroke:#fff;stroke-width:1px;stroke-linecap:butt;stroke-miterlimit:1.41421;"/><path d="M107.544,34.705L108.801,32.849C110.152,33.752 111.397,34.204 112.536,34.204C113.586,34.204 114.414,34.023 115.02,33.661C115.627,33.299 115.93,32.849 115.93,32.312C115.93,31.254 115.165,30.725 113.635,30.725C113.375,30.725 112.903,30.79 112.219,30.92C111.535,31.051 111.002,31.116 110.62,31.116C108.764,31.116 107.837,30.416 107.837,29.016C107.837,28.585 108.054,28.194 108.49,27.844C108.925,27.494 109.464,27.242 110.107,27.087C108.268,26.225 107.348,24.727 107.348,22.595C107.348,21.228 107.824,20.089 108.777,19.177C109.729,18.266 110.905,17.81 112.304,17.81C113.59,17.81 114.595,18.075 115.319,18.604L116.479,17.212L117.993,18.64L116.601,19.69C117.195,20.463 117.492,21.472 117.492,22.717C117.492,24.036 117.081,25.142 116.259,26.038C115.437,26.933 114.359,27.446 113.025,27.576L111.108,27.771C110.88,27.795 110.575,27.883 110.193,28.033C109.81,28.184 109.619,28.381 109.619,28.626C109.619,28.959 110.018,29.126 110.815,29.126C111.165,29.126 111.71,29.063 112.451,28.937C113.191,28.811 113.741,28.748 114.099,28.748C115.385,28.748 116.388,29.055 117.108,29.669C117.828,30.284 118.188,31.136 118.188,32.227C118.188,33.431 117.649,34.404 116.571,35.144C115.492,35.885 114.127,36.255 112.475,36.255C111.629,36.255 110.738,36.104 109.802,35.803C108.866,35.502 108.113,35.136 107.544,34.705ZM112.463,19.678C111.657,19.678 111,19.963 110.492,20.532C109.983,21.102 109.729,21.794 109.729,22.607C109.729,23.519 109.975,24.274 110.467,24.872C110.96,25.47 111.625,25.769 112.463,25.769C113.285,25.769 113.928,25.478 114.392,24.896C114.856,24.314 115.088,23.551 115.088,22.607C115.088,21.794 114.837,21.102 114.337,20.532C113.836,19.963 113.212,19.678 112.463,19.678Z" style="fill-rule:nonzero;stroke:#fff;stroke-width:1px;stroke-linecap:butt;stroke-miterlimit:1.41421;"/><path d="M134.509,31.372L133.276,31.372L126.611,13.245L129.321,13.245L133.923,26.416L138.354,13.245L140.979,13.245L134.509,31.372Z" style="fill-rule:nonzero;stroke:#fff;stroke-width:1px;stroke-linecap:butt;stroke-miterlimit:1.41421;"/><path d="M154.382,13.904L153.564,15.991C152.783,15.422 151.554,15.137 149.878,15.137C148.307,15.137 147.048,15.812 146.1,17.163C145.151,18.514 144.677,20.256 144.677,22.388C144.677,24.422 145.164,26.072 146.136,27.338C147.109,28.603 148.364,29.236 149.902,29.236C151.578,29.236 152.868,28.642 153.772,27.454L155.114,29.321C153.698,30.729 151.875,31.433 149.646,31.433C147.31,31.433 145.471,30.591 144.128,28.906C142.785,27.222 142.114,25 142.114,22.241C142.114,19.572 142.83,17.354 144.262,15.588C145.695,13.822 147.546,12.94 149.817,12.94C151.762,12.94 153.283,13.261 154.382,13.904Z" style="fill-rule:nonzero;stroke:#fff;stroke-width:1px;stroke-linecap:butt;stroke-miterlimit:1.41421;"/><path d="M157.068,22.034C157.068,19.446 157.717,17.281 159.015,15.54C160.313,13.798 162.064,12.927 164.27,12.927C166.752,12.927 168.654,13.729 169.976,15.332C171.299,16.935 171.96,19.169 171.96,22.034C171.96,24.972 171.297,27.273 169.97,28.937C168.644,30.601 166.744,31.433 164.27,31.433C162.015,31.433 160.252,30.554 158.978,28.796C157.704,27.039 157.068,24.784 157.068,22.034ZM159.631,22.034C159.631,24.085 160.036,25.798 160.846,27.173C161.655,28.548 162.797,29.236 164.27,29.236C165.938,29.236 167.21,28.605 168.084,27.344C168.959,26.082 169.397,24.312 169.397,22.034C169.397,17.428 167.688,15.125 164.27,15.125C162.756,15.125 161.604,15.743 160.815,16.98C160.026,18.217 159.631,19.902 159.631,22.034Z" style="fill-rule:nonzero;stroke:#fff;stroke-width:1px;stroke-linecap:butt;stroke-miterlimit:1.41421;"/></g><g id="path36429" transform="matrix(1,0,0,1,-116.955,-190.279)"><path d="M170.813,499.237C170.813,497.611 169.48,496.279 167.854,496.279L145.139,496.279C143.513,496.279 142.181,497.611 142.181,499.237L142.181,535.233C142.181,536.859 143.513,538.192 145.139,538.192L167.854,538.192C169.48,538.192 170.813,536.859 170.813,535.233L170.813,499.237Z" style="fill:#19bc45;fill-rule:nonzero;"/></g><g id="path364291" serif:id="path36429" transform="matrix(1,0,0,1,-117.181,-449.447)"><path d="M170.813,499.237C170.813,497.611 169.48,496.279 167.854,496.279L145.139,496.279C143.513,496.279 142.181,497.611 142.181,499.237L142.181,535.233C142.181,536.859 143.513,538.192 145.139,538.192L167.854,538.192C169.48,538.192 170.813,536.859 170.813,535.233L170.813,499.237Z" style="fill:#ae28e5;fill-rule:nonzero;"/></g><g id="path364292" serif:id="path36429" transform="matrix(1,0,0,1,-11.8127,-449.447)"><path d="M170.813,499.237C170.813,497.611 169.48,496.279 167.854,496.279L145.139,496.279C143.513,496.279 142.181,497.611 142.181,499.237L142.181,535.233C142.181,536.859 143.513,538.192 145.139,538.192L167.854,538.192C169.48,538.192 170.813,536.859 170.813,535.233L170.813,499.237Z" style="fill:#ae28e5;fill-rule:nonzero;"/></g><g id="path364293" serif:id="path36429" transform="matrix(1,0,0,1,-11.5874,-190.279)"><path d="M170.813,499.237C170.813,497.611 169.48,496.279 167.854,496.279L145.139,496.279C143.513,496.279 142.181,497.611 142.181,499.237L142.181,535.233C142.181,536.859 143.513,538.192 145.139,538.192L167.854,538.192C169.48,538.192 170.813,536.859 170.813,535.233L170.813,499.237Z" style="fill:#1a32d3;fill-rule:nonzero;"/></g><g transform="matrix(1.05601,0,0,1.05601,81.2951,308.042)"><path d="M24.365,35.815L19.727,35.815L12.476,16.431L5.225,35.815L0.586,35.815L10.205,10.376L8.838,6.689L3.418,9.229L2.344,6.714L7.886,4.126L6.348,0.024L10.986,0.024L11.841,2.295L16.699,0.024L17.798,2.515L12.793,4.858L24.365,35.815Z" style="fill-rule:nonzero;"/></g><g transform="matrix(1,0,0,1,9.88529,7.01817)"><path d="M29.425,94.839C30.409,94.831 31.097,94.465 31.488,93.74C31.862,93.057 32.045,92.268 32.037,91.372C32.037,90.518 31.85,89.749 31.475,89.065C31.28,88.74 31.012,88.487 30.67,88.308C30.336,88.121 29.921,88.028 29.425,88.028C28.481,88.044 27.809,88.39 27.41,89.065C27.004,89.749 26.804,90.518 26.812,91.372C26.804,92.268 26.995,93.057 27.386,93.74C27.777,94.465 28.456,94.831 29.425,94.839ZM25.225,91.519C25.234,88.304 26.633,86.681 29.425,86.648C30.808,86.656 31.858,87.104 32.574,87.991C33.282,88.87 33.636,90.013 33.636,91.421C33.636,92.723 33.294,93.842 32.611,94.778C31.919,95.714 30.857,96.194 29.425,96.219C28.928,96.219 28.444,96.117 27.972,95.913C27.5,95.694 27.126,95.36 26.849,94.912L26.812,94.912L26.812,99.527L25.225,99.527L25.225,91.519Z" style="fill-rule:nonzero;stroke:#fff;stroke-width:1px;stroke-linecap:butt;stroke-miterlimit:1.41421;"/></g><g transform="matrix(0.614298,0,0,0.614298,137.005,90.8128)"><path d="M5.103,25.195L20.361,25.195L12.646,6.128L5.103,25.195ZM10.913,2.905L14.6,2.905L24.927,27.979L0.708,27.979L10.913,2.905Z" style="fill-rule:nonzero;"/></g><g transform="matrix(-0.00409018,0.350237,-0.999932,-0.0116775,329.665,349.198)"><path d="M28.84,292.667L28.84,298L6,290L28.84,282L28.84,287.333L64,287.333L64,282L64,298L64,292.667L28.84,292.667Z"/></g><g transform="matrix(-0.000222513,-0.35026,1,-0.000635279,-145.083,370.513)"><path d="M28.84,292.667L28.84,298L6,290L28.84,282L28.84,287.333L64,287.333L64,282L64,298L64,292.667L28.84,292.667Z"/></g><g transform="matrix(1,0,0,1,-0.157835,6)"><path d="M87.316,108L87.316,103" style="fill:none;stroke:#000;stroke-width:1px;"/></g><g transform="matrix(1,0,0,1,-0.157835,6)"><path d="M94,108L101,108" style="fill:none;stroke:#000;stroke-width:1px;"/></g><g transform="matrix(1,0,0,1,-0.157835,6)"><path d="M94,103L87.316,103" style="fill:none;stroke:#000;stroke-width:1px;"/></g><g transform="matrix(1,0,0,1,-0.157835,6)"><path d="M94,108L94,103" style="stroke:#000;stroke-width:1px;"/></g><g transform="matrix(1,0,0,1,1,8)"><path d="M128,132L132,124.387" style="fill:none;stroke:#000;stroke-width:1px;"/></g><g transform="matrix(1,0,0,1,1,8)"><path d="M144.684,132L140,124.387L136,132L132,124.387" style="fill:none;stroke:#000;stroke-width:1px;"/></g><path d="M128,170L136,162.613" style="fill:none;stroke:#000;stroke-width:1px;"/><path d="M144.684,170L144.684,162.613L136,170L136,162.613" style="fill:none;stroke:#000;stroke-width:1px;"/><path d="M81.5,193L81.5,188.234L83,188.234L83,191L85,191L85,193L87.316,193L87.316,188.234L90,188.234L90,191L91,193L94,193L94,187L98,187L98,193L101,193L101,190L104,189.715L104,193L106.5,193" style="fill:none;stroke:#000;stroke-width:1px;"/><g transform="matrix(1,0,0,1,3,-4)"><path d="M44,139.387C44.667,140.591 46,143 47,143C48,143 49,140.553 50,139.387C50.981,138.242 52.167,136 53,136C53.833,136 54.611,138.258 55,139.387" style="fill:none;stroke:#000;stroke-width:1px;"/></g><g transform="matrix(1,0,0,1,-6,4)"><path d="M49.529,162.613C49.539,162.241 49.56,161.497 49.632,160.945C49.711,160.343 49.833,159.129 50,159C50.167,158.871 50.503,159.818 50.633,160.171C50.743,160.472 50.748,160.821 50.778,161.122C50.899,162.332 50.953,162.206 50.946,162.613C50.938,163.075 50.991,163.602 51,164C51.007,164.333 51,164.667 51,165C51,165.333 50.833,166 51,166C51.167,166 51.851,165.447 52,165C52.167,164.5 52,163.667 52,163C52,162.167 51.833,160.333 52,160C52.167,159.667 52.833,160.564 53,161C53.167,161.436 53,162.113 53,162.613C53,163.076 52.833,163.769 53,164C53.167,164.231 53.833,164.231 54,164C54.167,163.769 53.917,162.947 54,162.613C54.064,162.357 54.333,162.098 54.5,162C54.644,161.915 54.9,161.889 55,162.023C55.25,162.356 55.667,164.004 56,164C56.333,163.996 56.719,162.152 57,162C57.281,161.848 57.352,162.987 57.685,163.089C58.019,163.191 58.614,162.794 59,162.613C59.353,162.448 59.667,162.007 60,162.007C60.333,162.007 60.667,162.448 61,162.613C61.32,162.772 61.667,163 62,163C62.333,163 62.667,162.678 63,162.613C63.327,162.55 63.776,162.592 64,162.613" style="fill:none;stroke:#000;stroke-width:1px;"/></g></g></svg>